<?xml version="1.0" encoding="UTF-8"?><svg id="_3._Quadrat" xmlns="http://www.w3.org/2000/svg" viewBox="0 0 300 300"><defs><style>.cls-1{fill:#1d1d1b;}</style></defs><path class="cls-1" d="m273.34,50.5L37.96,285.88c-1.15,1.15-.33,3.11,1.29,3.11h235.37c1.01,0,1.82-.82,1.82-1.82V51.79c0-1.62-1.96-2.44-3.11-1.29Zm-35.89,199.49h-108.44l108.44-108.44v108.44Z"/><path class="cls-1" d="m24.66,247.45L260.04,12.08c.99-.99.52-2.58-.66-3-.34-.12-.73-.06-1.06.1L111.11,78.01c-7.81,3.65-17.06,2.01-23.15-4.09L24.19,9.86c-.89-.98-2.61-.43-2.64.89,0,.01,0,.02,0,.03v235.37c0,1.62,1.96,2.44,3.11,1.29Z"/></svg>