<?xml version="1.0" encoding="UTF-8"?>
<svg id="_3._Quadrat" data-name="3. Quadrat" xmlns="http://www.w3.org/2000/svg" viewBox="0 0 300 300">
  <defs>
    <style>
      .cls-1 {
        fill: #fff;
      }

      .cls-2 {
        fill: #1d1d1b;
      }
    </style>
  </defs>
  <path class="cls-2" d="m33.6,286.84h235.37c1.01,0,1.82-.82,1.82-1.82V49.64c0-1.62-1.96-2.44-3.11-1.29L32.31,283.73c-1.15,1.15-.33,3.11,1.29,3.11Z"/>
  <polygon class="cls-1" points="108.26 256.68 237.3 256.68 237.3 127.65 200.39 164.56 108.26 256.68"/>
  <g>
    <polygon class="cls-2" points="270.79 5.16 270.8 5.16 270.79 5.16 270.79 5.16"/>
    <path class="cls-2" d="m119.17,79.19c-6.41,3.13-14.09,1.84-19.13-3.2L29.23,5.18l.02-.02h-.05v237.2c0,1.62,1.96,2.44,3.11,1.29L263.03,12.92c1.45-1.45-.24-3.83-2.09-2.93L119.17,79.19Z"/>
  </g>
</svg>